<svg id="blog_wave" data-name="Layer 1" xmlns="http://www.w3.org/2000/svg" viewBox="0 0 1960.39 365.64"><defs></defs><title>blog_waves_1</title>
		
		
		<path class="wavy-blog-lines " d="M.2,53.94s204.69-79.1,538.25,3,681-14.29,681-14.29S1550.17-79,1943.09,103" transform="translate(0.26 -1.69)"/>
		
		
		<path class="wavy-blog-lines " d="M0,183.89S313.21-7.36,823.6,147.82c0,0,287.08,64.27,582.74-6.27s465.83-27.57,536.74-5.06" transform="translate(0.26 -1.69)"/>
		
		
		<path class="wavy-blog-lines " d="M.2,236.94s230.69-82.1,538.25,3,607.45,1.69,642.74-6,450.6-132.33,761.71,50.35" transform="translate(0.26 -1.69)"/>
		
		
		<circle class="wavy-blog-circles" cx="1520.26" cy="1.67" r="1.67"/>
		
		<path class="wavy-blog-lines" d="M.2,53.94" transform="translate(0.28 -1.69)"/>
		
		<path class="wavy-blog-lines" d="M0,366.89s272.94-187.82,820.26-36.07c0,0,342.87,71.18,586.09-6.27s536.57-4.65,536.57-4.65" transform="translate(0.28 -1.69)"/>
		
		<circle class="wavy-blog-circles" cx="423.37" cy="269.94" r="1.67"/>
		
		<circle class="wavy-blog-circles" cx="822.37" cy="329.94" r="1.67"/>
		
		<circle class="wavy-blog-circles" cx="1409.37" cy="321.94" r="1.67"/>
		
		<circle class="wavy-blog-circles" cx="1707.37" cy="287.94" r="1.67"/>
		
		</svg>