<svg id="content_wave" data-name="content_wave" xmlns="http://www.w3.org/2000/svg" viewBox="0 0 1969.31 224.84"><defs></defs><title>content_waves_1</title><path class="content_wavy_lines" d="M1968.5,223.5c-45.5-34.8-97.2-61.7-158.1-82.4-60-20.3-131.3-35.4-218.1-45.9-132.5-16.1-260.9,22.2-374.3,56.1-33.3,9.9-64.7,19.3-95.2,27.1-71.4,18.2-176.7,28.6-281.6,27.7C783.7,205.7,729,202,678.6,195c-55.6-7.7-104.4-19.1-144.9-33.9-41.6-15.2-88.5-27-139.3-35.1a944.09,944.09,0,0,0-148.5-11.7c-49.7,0-96.1,3.9-138,11.7C64.4,134.1,28.1,145.9.1,161.1" transform="translate(0.36 0.74)"/><circle class="content_wavy_circles" cx="546.88" cy="166.17" r="2.66"/><circle class="content_wavy_circles" cx="230.36" cy="115.45" r="2.66"/><path class="content_wavy_lines" d="M.1,132.1C45.6,97.3,97.3,70.4,158.2,49.7c60-20.3,131.3-35.4,218.1-45.9C508.7-12.3,637.2,26,750.5,59.9c33.3,9.9,64.7,19.3,95.2,27.1,71.4,18.2,176.7,28.6,281.6,27.7,57.6-.5,112.3-4.2,162.7-11.2,55.6-7.7,104.4-19.1,144.9-33.9,41.6-15.2,88.5-27,139.3-35.1a944.09,944.09,0,0,1,148.5-11.7c49.7,0,96.1,3.9,138,11.7,43.5,8.1,79.8,19.9,107.8,35.1" transform="translate(0.36 0.74)"/><circle class="content_wavy_circles" cx="367.36" cy="5.45" r="2.66"/><circle class="content_wavy_circles" cx="755.88" cy="62.17" r="2.66"/><circle class="content_wavy_circles" cx="1178.88" cy="164.17" r="2.66"/><circle class="content_wavy_circles" cx="1407.88" cy="79.17" r="2.66"/><circle class="content_wavy_circles" cx="1588.88" cy="96.17" r="2.66"/><circle class="content_wavy_circles" cx="1695.88" cy="24.17" r="2.66"/></svg>