<?xml version="1.0" encoding="utf-8"?>
<!-- Generator: Adobe Illustrator 21.0.2, SVG Export Plug-In . SVG Version: 6.00 Build 0)  -->
<svg version="1.1" id="text" xmlns="http://www.w3.org/2000/svg" xmlns:xlink="http://www.w3.org/1999/xlink" x="0px" y="0px"
	 viewBox="0 0 195.5 196" style="enable-background:new 0 0 195.5 196;" xml:space="preserve">
<style type="text/css">
	.st0{fill:#F0F1F2;}
	.st1{fill:#FFFFFF;}
</style>
<g>
	<path class="st0" d="M186.6,37.1c1.1-0.7,2.1-1.5,3-2.5c7.9-7.9,7.9-20.8,0-28.7c-3.8-3.8-8.9-5.9-14.4-5.9
		c-5.4,0-10.5,2.1-14.4,5.9c-0.9,0.9-1.7,1.9-2.5,3c0,0,0,0,0,0C153,3.6,146,0.7,138.4,0.7s-14.6,2.9-19.9,8.2
		c-5.3,5.3-8.2,12.4-8.2,19.9c0,7.5,2.9,14.6,8.2,19.9c0.3,0.3,0.6,0.6,0.9,0.8c0,0,0,0,0,0c0.1,0.3,1.5,3.2,2.1,6.9
		c0.6,3.2-0.1,6.8-1.8,9.8l-22,22l-22-22c-1.7-3-2.3-6.6-1.8-9.8c0.6-3.8,2-6.6,2.1-6.9c0,0,0,0,0,0c0.3-0.3,0.6-0.5,0.9-0.8
		c11-11,11-28.8,0-39.8c-5.3-5.3-12.4-8.2-19.9-8.2S42.5,3.6,37.2,8.9c0,0,0,0,0,0c-0.7-1.1-1.5-2.1-2.5-3C26.8-2,13.9-2,5.9,5.9
		C2.1,9.8,0,14.9,0,20.3c0,5.4,2.1,10.5,5.9,14.4c0.9,0.9,1.9,1.7,3,2.5c0,0,0,0,0,0c-11,11-11,28.8,0,39.8
		c5.3,5.3,12.4,8.2,19.9,8.2s14.6-2.9,19.9-8.2c0.3-0.3,0.7-0.7,1-1.1c0.7-0.3,3.4-1.4,6.9-2c3.2-0.5,6.7,0.1,9.7,1.8l22,22l-64,64
		c-1.1,1.1-1.5,2.7-1.1,4.7c0.3,1.5,1.1,2.9,2,3.8c0.9,0.9,2.4,1.7,3.8,2c0.5,0.1,1,0.2,1.5,0.2c1.3,0,2.4-0.4,3.2-1.2l1-1l2.7,2.7
		l-1,1c-1,1-1.6,2.3-1.6,3.8s0.6,2.8,1.6,3.8l13,13c1,1,2.3,1.6,3.8,1.6c1.4,0,2.8-0.6,3.8-1.6c2.1-2.1,2.1-5.5,0-7.5l-1.2-1.2
		L77.6,164l1.2,1.2c1,1,2.3,1.6,3.8,1.6c1.4,0,2.8-0.6,3.8-1.6c1-1,1.6-2.3,1.6-3.8c0-1.4-0.6-2.8-1.6-3.8l-13-13
		c-2.1-2.1-5.5-2.1-7.5,0l-1,1l-2.7-2.7l35.7-35.7l35.7,35.7l-2.7,2.7l-1-1c-2.1-2.1-5.5-2.1-7.5,0l-13,13c-1,1-1.6,2.3-1.6,3.8
		c0,1.4,0.6,2.8,1.6,3.8c2.1,2.1,5.5,2.1,7.5,0l1.2-1.2l21.8,21.8l-1.2,1.2c-2.1,2.1-2.1,5.5,0,7.5c1,1,2.3,1.6,3.8,1.6
		s2.8-0.6,3.8-1.6l13-13c1-1,1.6-2.3,1.6-3.8s-0.6-2.8-1.6-3.8l-1-1l2.7-2.7l1,1c0.8,0.8,1.9,1.2,3.2,1.2c0.5,0,1-0.1,1.5-0.2
		c1.5-0.3,2.9-1.1,3.8-2c0.9-0.9,1.7-2.4,2-3.8c0.4-1.9,0-3.6-1.1-4.7l-64-64l22-22c3-1.7,6.5-2.3,9.7-1.8c3.5,0.6,6.2,1.7,6.9,2
		c0.3,0.4,0.6,0.7,1,1.1c5.3,5.3,12.4,8.2,19.9,8.2s14.6-2.9,19.9-8.2c5.3-5.3,8.2-12.4,8.2-19.9C194.9,49.6,191.9,42.5,186.6,37.1
		C186.6,37.2,186.6,37.2,186.6,37.1z M163.7,8.8c6.4-6.4,16.7-6.4,23.1,0c6.4,6.4,6.4,16.7,0,23.1c-1,1-2.1,1.9-3.3,2.6
		c-0.8-0.6-1.7-1.2-2.6-1.7c1.5-0.7,2.9-1.6,4-2.8c2.6-2.6,4-6,4-9.6s-1.4-7.1-4-9.6s-6-4-9.6-4c-3.6,0-7.1,1.4-9.6,4
		c-1.2,1.2-2.1,2.6-2.8,4c-0.5-0.9-1.1-1.8-1.7-2.6C161.8,10.9,162.6,9.8,163.7,8.8z M163.7,8.8c6.4-6.4,16.7-6.4,23.1,0
		c6.4,6.4,6.4,16.7,0,23.1c-1,1-2.1,1.9-3.3,2.6c-0.8-0.6-1.7-1.2-2.6-1.7c1.5-0.7,2.9-1.6,4-2.8c2.6-2.6,4-6,4-9.6s-1.4-7.1-4-9.6
		s-6-4-9.6-4c-3.6,0-7.1,1.4-9.6,4c-1.2,1.2-2.1,2.6-2.8,4c-0.5-0.9-1.1-1.8-1.7-2.6C161.8,10.9,162.6,9.8,163.7,8.8z M165.6,21.6
		c0,0,0-0.1,0-0.1c-0.3-3,0.7-5.9,2.8-8c1.8-1.8,4.2-2.8,6.8-2.8c2.6,0,5,1,6.8,2.8c1.8,1.8,2.8,4.2,2.8,6.8s-1,5-2.8,6.8
		c-2.1,2.1-5,3.1-7.9,2.8c0,0-0.1,0-0.1,0c-2.3-0.6-4.8-0.9-7.3-0.9c0,0-0.1,0-0.1,0C166.6,26.4,166.3,24,165.6,21.6z M8.8,31.9
		C5.7,28.8,4,24.7,4,20.3s1.7-8.5,4.8-11.6c6.4-6.4,16.7-6.4,23.1,0c1,1,1.9,2.1,2.6,3.3c-0.6,0.8-1.2,1.7-1.7,2.6
		c-0.7-1.5-1.6-2.9-2.8-4c-2.6-2.6-6-4-9.6-4l0,0c-3.6,0-7.1,1.4-9.6,4c-5.3,5.3-5.3,14,0,19.3c1.2,1.2,2.6,2.1,4,2.8
		c-0.9,0.5-1.8,1.1-2.6,1.7C10.9,33.7,9.8,32.9,8.8,31.9z M8.8,31.9C5.7,28.8,4,24.7,4,20.3s1.7-8.5,4.8-11.6
		c6.4-6.4,16.7-6.4,23.1,0c1,1,1.9,2.1,2.6,3.3c-0.6,0.8-1.2,1.7-1.7,2.6c-0.7-1.5-1.6-2.9-2.8-4c-2.6-2.6-6-4-9.6-4l0,0
		c-3.6,0-7.1,1.4-9.6,4c-5.3,5.3-5.3,14,0,19.3c1.2,1.2,2.6,2.1,4,2.8c-0.9,0.5-1.8,1.1-2.6,1.7C10.9,33.7,9.8,32.9,8.8,31.9z
		 M21.5,29.9c0,0-0.1,0-0.1,0c-2.9,0.3-5.8-0.7-7.9-2.8c-3.8-3.8-3.8-9.9,0-13.6c1.8-1.8,4.2-2.8,6.8-2.8s5,1,6.8,2.8
		c2.1,2.1,3.1,5,2.8,8c0,0,0,0.1,0,0.1c-0.6,2.4-1,4.8-0.9,7.4C26.4,28.9,23.9,29.3,21.5,29.9z M28.8,81.3c-6.5,0-12.5-2.5-17.1-7.1
		c-9.4-9.4-9.4-24.8,0-34.2c4.6-4.6,10.6-7.1,17.1-7.1c0.7,0,1.4,0,2,0.1c0.6,0,1.2-0.2,1.6-0.6c0.4-0.4,0.6-1,0.6-1.6
		c-0.6-7.1,1.9-14.1,7-19.1c4.6-4.6,10.6-7.1,17.1-7.1c6.5,0,12.5,2.5,17.1,7.1c9.4,9.4,9.4,24.8,0,34.2c-3,3-7,4.6-11.1,4.5
		c-3.6-0.1-6.9-1.5-9.2-4.1c-2.4-2.6-3.5-5.9-3.2-9.2c0.4-3.4,2.4-6.7,5.8-9.1c0.3-0.2,0.6-0.3,0.8-0.3c0.4,0,0.8,0.2,1.1,0.6
		c0.4,0.6,0.3,1.5-0.3,1.9c-2.8,2-4.4,4.5-4.6,7.2c-0.3,2.5,0.6,5,2.5,7c2.4,2.6,5.3,3.2,7.3,3.2c3.3,0.1,6.7-1.3,9.1-3.7
		c8.4-8.4,8.4-22,0-30.3c-4-4-9.4-6.3-15.2-6.3S46,9.6,41.9,13.6c-5.5,5.5-7.6,13.6-5.4,21.1c0,0,0,0,0,0c0,0,0,0,0,0l0,0.1l0,0.2
		c0,0,0,0,0,0l0,0c0,0,0,0,0,0l0,0c0,0,0,0,0,0l0,0c0,0,0,0,0,0l0,0.1c0,0,0,0,0,0l0,0.1c0,0,0,0,0,0l0,0.1c0,0,0,0,0,0l-0.1,0.2
		c0,0,0,0,0,0l0,0c0,0,0,0,0,0c0,0,0,0,0,0c0,0,0,0,0,0c0,0,0,0,0,0c0,0,0,0,0,0l0,0c0,0,0,0,0,0l-0.1,0.1c0,0,0,0,0,0l-0.1,0.1
		c0,0,0,0,0,0c0,0,0,0,0,0c0,0,0,0,0,0c0,0-0.1,0-0.1,0.1c0,0,0,0,0,0c0,0,0,0,0,0l-0.3,0.1c0,0,0,0,0,0c0,0,0,0,0,0l-0.3,0.1
		c0,0,0,0,0,0v2l0-2h0c0,0,0,0,0,0l0,0c0,0,0,0,0,0l-0.1,0c0,0,0,0,0,0l-0.2,0c0,0,0,0,0,0c-1.9-0.6-4-0.8-6-0.8
		c-5.7,0-11.1,2.2-15.2,6.3c-8.4,8.4-8.4,22,0,30.3c4,4,9.4,6.3,15.2,6.3s11.1-2.2,15.2-6.3c2.4-2.4,3.8-5.8,3.7-9.1
		c0-2-0.6-4.9-3.2-7.3c-2-1.9-4.6-2.8-7-2.5c-2.7,0.3-5.2,1.9-7.2,4.6c-0.3,0.4-0.7,0.6-1.1,0.6c-0.2,0-0.5,0-0.8-0.3
		c-0.6-0.4-0.7-1.3-0.3-1.9c2.4-3.4,5.6-5.4,9.1-5.8c0.4,0,0.8-0.1,1.1-0.1c2.9,0,5.7,1.1,8,3.3c2.6,2.4,4,5.6,4.1,9.2
		c0.1,4.1-1.6,8.1-4.5,11.1C41.3,78.7,35.3,81.3,28.8,81.3z M28.8,81.3c-6.5,0-12.5-2.5-17.1-7.1c-9.4-9.4-9.4-24.8,0-34.2
		c4.6-4.6,10.6-7.1,17.1-7.1c0.7,0,1.4,0,2,0.1c0.6,0,1.2-0.2,1.6-0.6c0.4-0.4,0.6-1,0.6-1.6c-0.6-7.1,1.9-14.1,7-19.1
		c4.6-4.6,10.6-7.1,17.1-7.1c6.5,0,12.5,2.5,17.1,7.1c9.4,9.4,9.4,24.8,0,34.2c-3,3-7,4.6-11.1,4.5c-3.6-0.1-6.9-1.5-9.2-4.1
		c-2.4-2.6-3.5-5.9-3.2-9.2c0.4-3.4,2.4-6.7,5.8-9.1c0.3-0.2,0.6-0.3,0.8-0.3c0.4,0,0.8,0.2,1.1,0.6c0.4,0.6,0.3,1.5-0.3,1.9
		c-2.8,2-4.4,4.5-4.6,7.2c-0.3,2.5,0.6,5,2.5,7c2.4,2.6,5.3,3.2,7.3,3.2c3.3,0.1,6.7-1.3,9.1-3.7c8.4-8.4,8.4-22,0-30.3
		c-4-4-9.4-6.3-15.2-6.3S46,9.6,41.9,13.6c-5.5,5.5-7.6,13.6-5.4,21.1c0,0,0,0,0,0c0,0,0,0,0,0l0,0.1l0,0.2c0,0,0,0,0,0l0,0
		c0,0,0,0,0,0l0,0c0,0,0,0,0,0l0,0c0,0,0,0,0,0l0,0.1c0,0,0,0,0,0l0,0.1c0,0,0,0,0,0l0,0.1c0,0,0,0,0,0l-0.1,0.2c0,0,0,0,0,0l0,0
		c0,0,0,0,0,0c0,0,0,0,0,0c0,0,0,0,0,0c0,0,0,0,0,0c0,0,0,0,0,0l0,0c0,0,0,0,0,0l-0.1,0.1c0,0,0,0,0,0l-0.1,0.1c0,0,0,0,0,0
		c0,0,0,0,0,0c0,0,0,0,0,0c0,0-0.1,0-0.1,0.1c0,0,0,0,0,0c0,0,0,0,0,0l-0.3,0.1c0,0,0,0,0,0c0,0,0,0,0,0l-0.3,0.1c0,0,0,0,0,0v2l0-2
		h0c0,0,0,0,0,0l0,0c0,0,0,0,0,0l-0.1,0c0,0,0,0,0,0l-0.2,0c0,0,0,0,0,0c-1.9-0.6-4-0.8-6-0.8c-5.7,0-11.1,2.2-15.2,6.3
		c-8.4,8.4-8.4,22,0,30.3c4,4,9.4,6.3,15.2,6.3s11.1-2.2,15.2-6.3c2.4-2.4,3.8-5.8,3.7-9.1c0-2-0.6-4.9-3.2-7.3
		c-2-1.9-4.6-2.8-7-2.5c-2.7,0.3-5.2,1.9-7.2,4.6c-0.3,0.4-0.7,0.6-1.1,0.6c-0.2,0-0.5,0-0.8-0.3c-0.6-0.4-0.7-1.3-0.3-1.9
		c2.4-3.4,5.6-5.4,9.1-5.8c0.4,0,0.8-0.1,1.1-0.1c2.9,0,5.7,1.1,8,3.3c2.6,2.4,4,5.6,4.1,9.2c0.1,4.1-1.6,8.1-4.5,11.1
		C41.3,78.7,35.3,81.3,28.8,81.3z M62.9,62.9c-2.5-0.1-5.3,0-8.2,0.5c-0.1,0-0.2,0-0.3,0.1c0-0.2,0-0.3,0-0.5c-0.1-4.7-2-9-5.4-12.1
		c-3-2.8-6.8-4.3-10.7-4.3c-0.5,0-1,0-1.6,0.1c-4.6,0.5-8.8,3.1-11.9,7.4c-1.7,2.4-1.2,5.7,1.2,7.4c0.9,0.7,2,1,3.1,1
		c1.7,0,3.3-0.8,4.3-2.2c0.9-1.3,2.4-2.8,4.3-3c1.3-0.1,2.7,0.4,4,1.5c1.2,1.1,1.9,2.6,1.9,4.4c0.1,2.2-0.9,4.5-2.6,6.2
		c-3.3,3.3-7.7,5.1-12.4,5.1c-4.7,0-9.1-1.8-12.4-5.1c-3.3-3.3-5.1-7.7-5.1-12.4s1.8-9.1,5.1-12.4c3.3-3.3,7.7-5.1,12.4-5.1
		c1.7,0,3.3,0.2,4.9,0.7c0,0,0,0,0.1,0c0.1,0,0.1,0,0.2,0l0.1,0c0.1,0,0.1,0,0.2,0c0,0,0,0,0,0c0.1,0,0.1,0,0.2,0c0,0,0,0,0,0
		c0,0,0,0,0,0c0.1,0,0.1,0,0.2,0l0.1,0c0.1,0,0.1,0,0.2,0l0.1,0c0,0,0.1,0,0.1,0v-2l0,2h0c0,0,0.1,0,0.1,0l0.1,0c0.1,0,0.1,0,0.2,0
		l0.1,0c0.1,0,0.1,0,0.2,0l0.1,0c0.1,0,0.1,0,0.2,0l0.1,0c0.1,0,0.1,0,0.2,0l0.1,0c0.1,0,0.1,0,0.2,0c0,0,0,0,0,0c0,0,0,0,0.1,0
		c0.1,0,0.1,0,0.2-0.1l0.1,0c0,0,0.1,0,0.1,0c0,0,0.1,0,0.1-0.1l0.1,0c0.1,0,0.1,0,0.2-0.1l0,0c0.1,0,0.1-0.1,0.2-0.1c0,0,0,0,0,0
		c0.1,0,0.1-0.1,0.2-0.1c0,0,0,0,0,0c0.1-0.1,0.3-0.2,0.4-0.3c0,0,0,0,0,0c0.1,0,0.1-0.1,0.2-0.1c0,0,0,0,0,0c0.1,0,0.1-0.1,0.1-0.1
		l0.1-0.1c0,0,0.1-0.1,0.1-0.1c0,0,0.1-0.1,0.1-0.1l0.1-0.1c0,0,0.1-0.1,0.1-0.1c0,0,0,0,0-0.1c0,0,0.1-0.1,0.1-0.2l0,0c0,0,0,0,0,0
		c0-0.1,0.1-0.1,0.1-0.2c0,0,0,0,0,0c0-0.1,0.1-0.1,0.1-0.2c0-0.1,0.1-0.1,0.1-0.2c0,0,0,0,0,0c0,0,0,0,0,0c0-0.1,0.1-0.1,0.1-0.2
		l0,0c0-0.1,0-0.1,0.1-0.2l0-0.1c0,0,0-0.1,0-0.1c0,0,0-0.1,0.1-0.2l0-0.1c0-0.1,0-0.1,0.1-0.2l0,0c0,0,0,0,0,0c0,0,0,0,0,0
		c0-0.1,0-0.1,0-0.2l0-0.1c0-0.1,0-0.1,0-0.2c0,0,0,0,0-0.1c0-0.1,0-0.1,0-0.2c0,0,0,0,0-0.1c0-0.1,0-0.1,0-0.2l0-0.1
		c0-0.1,0-0.1,0-0.2c0,0,0-0.1,0-0.1c0,0,0-0.1,0-0.2c0,0,0-0.1,0-0.1c0,0,0-0.1,0-0.1c0,0,0-0.1,0-0.2l0-0.1c0-0.1,0-0.1,0-0.2
		l0-0.1c0-0.1,0-0.1,0-0.2l0-0.1c0-0.1,0-0.1,0-0.2l0,0c0-0.1,0-0.1,0-0.2c0,0,0,0,0-0.1c-1.8-6.1-0.1-12.7,4.4-17.3
		c3.3-3.3,7.7-5.1,12.4-5.1c4.7,0,9.1,1.8,12.4,5.1c6.8,6.8,6.8,17.9,0,24.7c-1.7,1.7-4,2.6-6.2,2.6c-1.8,0-3.3-0.7-4.4-1.9
		c-1.1-1.2-1.6-2.6-1.5-4c0.2-1.9,1.8-3.4,3-4.3c2.4-1.7,2.9-5.1,1.2-7.4c-1-1.4-2.6-2.2-4.3-2.2c-1.1,0-2.2,0.3-3.1,1
		c-4.3,3.1-6.9,7.3-7.4,11.9c-0.5,4.4,1,8.8,4.2,12.3c3.1,3.4,7.4,5.3,12.1,5.4c0.2,0,0.3,0,0.5,0c0,0.1,0,0.2-0.1,0.3
		C62.9,57.6,62.8,60.4,62.9,62.9z M69.6,147c0.3,0,0.7,0.1,1,0.4l13,13c0.5,0.5,0.5,1.4,0,1.9c-0.5,0.5-1.4,0.5-1.9,0l-2.6-2.6
		c-0.8-0.8-2-0.8-2.8,0l-24.6,24.6c-0.8,0.8-0.8,2,0,2.8l2.6,2.6c0.5,0.5,0.5,1.4,0,1.9c-0.5,0.5-1.4,0.5-1.9,0l-13-13
		c-0.3-0.3-0.4-0.6-0.4-1s0.1-0.7,0.4-1l29.3-29.3C68.9,147.2,69.2,147,69.6,147z M69.6,147c0.3,0,0.7,0.1,1,0.4l13,13
		c0.5,0.5,0.5,1.4,0,1.9c-0.5,0.5-1.4,0.5-1.9,0l-2.6-2.6c-0.8-0.8-2-0.8-2.8,0l-24.6,24.6c-0.8,0.8-0.8,2,0,2.8l2.6,2.6
		c0.5,0.5,0.5,1.4,0,1.9c-0.5,0.5-1.4,0.5-1.9,0l-13-13c-0.3-0.3-0.4-0.6-0.4-1s0.1-0.7,0.4-1l29.3-29.3
		C68.9,147.2,69.2,147,69.6,147z M62,148.4l-21.7,21.7l-2.7-2.7l21.7-21.7L62,148.4z M31,168.4c-0.4,0.2-2.1-0.2-2.9-0.9
		c-0.8-0.8-1.2-2.4-0.9-2.9l64-64l3.8,3.8L31,168.4z M31,168.4c-0.4,0.2-2.1-0.2-2.9-0.9c-0.8-0.8-1.2-2.4-0.9-2.9l64-64l3.8,3.8
		L31,168.4z M156.2,178.7l-13,13c-0.3,0.3-0.6,0.4-1,0.4c-0.4,0-0.7-0.1-1-0.4c-0.5-0.5-0.5-1.4,0-1.9l2.6-2.6c0.8-0.8,0.8-2,0-2.8
		l-24.6-24.6c-0.4-0.4-0.9-0.6-1.4-0.6s-1,0.2-1.4,0.6l-2.6,2.6c-0.5,0.5-1.4,0.5-1.9,0c-0.3-0.3-0.4-0.6-0.4-1s0.1-0.7,0.4-1l13-13
		c0.5-0.5,1.4-0.5,1.9,0l29.3,29.3c0.3,0.3,0.4,0.6,0.4,1S156.5,178.4,156.2,178.7z M156.2,178.7l-13,13c-0.3,0.3-0.6,0.4-1,0.4
		c-0.4,0-0.7-0.1-1-0.4c-0.5-0.5-0.5-1.4,0-1.9l2.6-2.6c0.8-0.8,0.8-2,0-2.8l-24.6-24.6c-0.4-0.4-0.9-0.6-1.4-0.6s-1,0.2-1.4,0.6
		l-2.6,2.6c-0.5,0.5-1.4,0.5-1.9,0c-0.3-0.3-0.4-0.6-0.4-1s0.1-0.7,0.4-1l13-13c0.5-0.5,1.4-0.5,1.9,0l29.3,29.3
		c0.3,0.3,0.4,0.6,0.4,1S156.5,178.4,156.2,178.7z M155.2,170.1l-21.7-21.7l2.7-2.7l21.7,21.7L155.2,170.1z M62,148.4l-21.7,21.7
		l-2.7-2.7l21.7-21.7L62,148.4z M155.2,170.1l-21.7-21.7l2.7-2.7l21.7,21.7L155.2,170.1z M167.4,167.4c-0.8,0.8-2.4,1.2-2.9,0.9
		L69,72.7c-0.1-0.1-0.3-0.2-0.4-0.3c-3.9-2.3-8.4-3.1-12.6-2.4c-1.1,0.2-2.1,0.4-3,0.6c0.4-1,0.7-2,1-3c0.5-0.1,1-0.2,1.5-0.3
		c3.5-0.6,6.7-0.7,9.4-0.3c0.6,0.1,1.3-0.1,1.7-0.6c0.4-0.4,0.7-1.1,0.6-1.7c-0.4-2.8-0.3-6,0.3-9.4c0.1-0.5,0.2-1,0.3-1.5
		c1-0.2,2-0.6,3-1c-0.2,0.9-0.5,1.9-0.6,2.9c-0.7,4.3,0.1,8.8,2.4,12.7c0.1,0.1,0.2,0.3,0.3,0.4l95.6,95.6
		C168.6,165,168.2,166.7,167.4,167.4z M167.4,167.4c-0.8,0.8-2.4,1.2-2.9,0.9L69,72.7c-0.1-0.1-0.3-0.2-0.4-0.3
		c-3.9-2.3-8.4-3.1-12.6-2.4c-1.1,0.2-2.1,0.4-3,0.6c0.4-1,0.7-2,1-3c0.5-0.1,1-0.2,1.5-0.3c3.5-0.6,6.7-0.7,9.4-0.3
		c0.6,0.1,1.3-0.1,1.7-0.6c0.4-0.4,0.7-1.1,0.6-1.7c-0.4-2.8-0.3-6,0.3-9.4c0.1-0.5,0.2-1,0.3-1.5c1-0.2,2-0.6,3-1
		c-0.2,0.9-0.5,1.9-0.6,2.9c-0.7,4.3,0.1,8.8,2.4,12.7c0.1,0.1,0.2,0.3,0.3,0.4l95.6,95.6C168.6,165,168.2,166.7,167.4,167.4z
		 M139.5,70c-4.2-0.7-8.7,0.2-12.6,2.4c-0.1,0.1-0.3,0.2-0.4,0.3L104.4,95l-3.8-3.8L122.8,69c0.1-0.1,0.2-0.3,0.3-0.4
		c2.3-3.9,3.1-8.4,2.4-12.7c-0.2-1-0.4-2-0.6-2.9c1,0.4,2,0.7,3,1c0.1,0.5,0.2,1,0.3,1.5c0.6,3.5,0.7,6.7,0.3,9.4
		c-0.1,0.6,0.1,1.3,0.6,1.7c0.4,0.4,1.1,0.7,1.7,0.6c2.8-0.4,6-0.3,9.4,0.3c0.5,0.1,1,0.2,1.5,0.3c0.2,1,0.5,2,1,3
		C141.6,70.4,140.6,70.2,139.5,70z M139.5,70c-4.2-0.7-8.7,0.2-12.6,2.4c-0.1,0.1-0.3,0.2-0.4,0.3L104.4,95l-3.8-3.8L122.8,69
		c0.1-0.1,0.2-0.3,0.3-0.4c2.3-3.9,3.1-8.4,2.4-12.7c-0.2-1-0.4-2-0.6-2.9c1,0.4,2,0.7,3,1c0.1,0.5,0.2,1,0.3,1.5
		c0.6,3.5,0.7,6.7,0.3,9.4c-0.1,0.6,0.1,1.3,0.6,1.7c0.4,0.4,1.1,0.7,1.7,0.6c2.8-0.4,6-0.3,9.4,0.3c0.5,0.1,1,0.2,1.5,0.3
		c0.2,1,0.5,2,1,3C141.6,70.4,140.6,70.2,139.5,70z M148.8,36.7c-0.5-4.6-3.1-8.8-7.4-11.9c-0.9-0.7-2-1-3.1-1
		c-1.7,0-3.3,0.8-4.3,2.2c-1.7,2.4-1.2,5.7,1.2,7.4c1.3,0.9,2.8,2.4,3,4.3c0.1,1.3-0.4,2.7-1.5,4c-1.1,1.2-2.6,1.9-4.4,1.9
		c-2.2,0-4.5-0.9-6.2-2.6c-6.8-6.8-6.8-17.9,0-24.7c3.3-3.3,7.7-5.1,12.4-5.1c4.7,0,9.1,1.8,12.4,5.1c4.5,4.5,6.2,11.1,4.4,17.3
		c0,0,0,0,0,0c0,0.1,0,0.1,0,0.2c0,0,0,0,0,0.1c0,0.1,0,0.1,0,0.2c0,0,0,0,0,0c0,0.1,0,0.1,0,0.2c0,0,0,0,0,0.1c0,0.1,0,0.1,0,0.2
		l0,0.1c0,0.1,0,0.1,0,0.2c0,0,0,0.1,0,0.1c0,0,0,0.1,0,0.1l2,0l-2,0c0,0,0,0.1,0,0.1c0,0,0,0.1,0,0.1c0,0.1,0,0.1,0,0.2l0,0.1
		c0,0.1,0,0.1,0,0.2l0,0.1c0,0.1,0,0.1,0,0.2l0,0c0,0.1,0,0.1,0,0.2c0,0,0,0,0,0c0,0,0,0,0,0c0,0.1,0,0.1,0.1,0.2c0,0,0,0,0,0
		c0,0,0,0,0,0.1c0,0.1,0,0.1,0.1,0.2l0,0.1c0,0,0,0.1,0,0.1c0,0,0,0.1,0.1,0.1l0,0.1c0,0.1,0,0.1,0.1,0.2l0,0.1
		c0,0.1,0.1,0.1,0.1,0.2l0,0c0,0,0,0,0,0c0,0.1,0.1,0.1,0.1,0.2c0,0,0,0,0,0c0,0.1,0.1,0.1,0.1,0.2c0,0,0,0,0,0
		c0,0.1,0.1,0.1,0.1,0.2c0,0,0,0,0,0c0,0.1,0.1,0.1,0.1,0.1c0,0,0,0,0,0.1c0,0,0.1,0.1,0.1,0.1c0,0,0,0,0.1,0.1c0,0,0,0,0,0
		c0,0,0.1,0.1,0.1,0.1c0,0,0.1,0.1,0.1,0.1l0.1,0.1c0.1,0,0.1,0.1,0.2,0.1c0,0,0,0,0,0c0.1,0,0.1,0.1,0.2,0.1c0,0,0,0,0,0
		c0.1,0.1,0.3,0.2,0.4,0.3c0,0,0,0,0,0c0.1,0,0.1,0.1,0.2,0.1c0,0,0,0,0,0c0,0,0,0,0,0c0.1,0,0.1,0.1,0.2,0.1c0,0,0,0,0,0
		c0.1,0,0.1,0.1,0.2,0.1l0.1,0c0,0,0.1,0,0.1,0c0,0,0.1,0,0.1,0.1l0.1,0c0.1,0,0.1,0,0.2,0.1c0,0,0,0,0.1,0c0,0,0,0,0,0
		c0.1,0,0.1,0,0.2,0c0,0,0,0,0.1,0c0.1,0,0.1,0,0.2,0c0,0,0,0,0.1,0c0.1,0,0.1,0,0.2,0c0,0,0,0,0.1,0c0.1,0,0.1,0,0.2,0l0.1,0
		c0.1,0,0.1,0,0.2,0l0.1,0c0,0,0.1,0,0.1,0h0.1c0,0,0.1,0,0.1,0l0.1,0c0.1,0,0.1,0,0.2,0l0.1,0c0.1,0,0.1,0,0.2,0c0,0,0,0,0,0l0,0
		c0.1,0,0.1,0,0.2,0l0.1,0c0.1,0,0.1,0,0.2,0l0,0c0.1,0,0.1,0,0.2,0c0,0,0,0,0.1,0c1.6-0.5,3.2-0.7,4.9-0.7c4.7,0,9.1,1.8,12.4,5.1
		c6.8,6.8,6.8,17.9,0,24.7c-3.3,3.3-7.7,5.1-12.4,5.1c0,0,0,0,0,0c-4.7,0-9.1-1.8-12.4-5.1c-1.7-1.7-2.6-4-2.6-6.2
		c0-1.8,0.7-3.3,1.9-4.4c1.2-1.1,2.6-1.6,4-1.5c1.9,0.2,3.4,1.8,4.3,3c1,1.4,2.6,2.2,4.3,2.2c1.1,0,2.2-0.3,3.1-1
		c2.4-1.7,2.9-5.1,1.2-7.4c-3.1-4.3-7.3-6.9-11.9-7.4c-0.5-0.1-1-0.1-1.6-0.1c-3.9,0-7.7,1.5-10.7,4.3c-3.4,3.1-5.3,7.4-5.4,12.1
		c0,0.2,0,0.3,0,0.5c-0.1,0-0.2,0-0.3-0.1c-2.9-0.5-5.7-0.7-8.2-0.5c0.1-2.5,0-5.3-0.5-8.2c0-0.1,0-0.2-0.1-0.3c0.2,0,0.3,0,0.5,0
		c4.7-0.1,9-2,12.1-5.4C147.7,45.5,149.2,41.1,148.8,36.7z M183.8,74.2c-4.6,4.6-10.6,7.1-17.1,7.1s-12.5-2.5-17.1-7.1
		c-3-3-4.6-7-4.5-11.1c0.1-3.6,1.5-6.9,4.1-9.2c2.3-2.1,5.1-3.3,8-3.3c0.4,0,0.8,0,1.1,0.1c3.4,0.4,6.7,2.4,9.1,5.8
		c0.4,0.6,0.3,1.5-0.3,1.9c-0.3,0.2-0.6,0.3-0.8,0.3c-0.4,0-0.8-0.2-1.1-0.6c-2-2.8-4.5-4.4-7.2-4.6c-2.5-0.3-5,0.7-7,2.5
		c-2.6,2.4-3.2,5.3-3.2,7.3c-0.1,3.3,1.3,6.7,3.7,9.1c4,4,9.4,6.3,15.2,6.3h0c5.7,0,11.1-2.2,15.2-6.3c8.4-8.4,8.4-22,0-30.3
		c-4.1-4.1-9.4-6.3-15.2-6.3c-2,0-4,0.3-6,0.8c0,0,0,0,0,0l-0.1,0l-0.2,0c0,0,0,0,0,0l-0.1,0c0,0,0,0,0,0l0,0c0,0,0,0,0,0l-0.1,0
		c0,0,0,0,0,0l0,0c0,0,0,0,0,0l0,0c0,0,0,0,0,0c0,0,0,0,0,0l-0.3-0.1c0,0,0,0,0,0c0,0,0,0-0.1,0c0,0,0,0,0,0c0,0-0.1,0-0.1-0.1
		c0,0,0,0,0,0c0,0,0,0,0,0c0,0,0,0,0,0l0,0c0,0,0,0,0,0l-0.2-0.2c0,0,0,0,0,0c0,0,0,0,0,0c0,0,0,0,0,0c0,0,0,0,0,0c0,0,0,0,0,0l0,0
		h0l-0.1-0.3c0,0,0,0,0,0c0,0,0,0,0,0l0-0.1l0-0.3c0,0,0,0,0,0c0,0,0,0,0,0l0,0l-2-0.2l2,0.2l0,0c0,0,0,0,0,0l0,0c0,0,0,0,0,0l0,0
		c0,0,0,0,0,0l0-0.1c0,0,0,0,0,0c2.2-7.5,0.1-15.6-5.4-21.1c-4-4-9.4-6.3-15.2-6.3c-5.7,0-11.1,2.2-15.2,6.3c-8.4,8.4-8.4,22,0,30.3
		c2.4,2.4,5.8,3.8,9.1,3.7c2,0,4.9-0.6,7.3-3.2c1.9-2.1,2.8-4.6,2.5-7c-0.3-2.7-1.9-5.2-4.6-7.2c-0.6-0.4-0.8-1.3-0.3-1.9
		c0.3-0.4,0.7-0.6,1.1-0.6c0.2,0,0.5,0,0.8,0.3c3.4,2.4,5.4,5.6,5.8,9.1c0.3,3.3-0.8,6.5-3.2,9.2c-2.4,2.6-5.6,4-9.2,4.1
		c-4.1,0.1-8.1-1.6-11.1-4.5c-4.6-4.6-7.1-10.6-7.1-17.1c0-6.5,2.5-12.5,7.1-17.1c4.6-4.6,10.6-7.1,17.1-7.1
		c6.5,0,12.5,2.5,17.1,7.1c5,5,7.6,12,7,19.1c0,0.6,0.2,1.2,0.6,1.6c0.4,0.4,1,0.6,1.6,0.6c0.7-0.1,1.4-0.1,2-0.1
		c6.5,0,12.5,2.5,17.1,7.1c4.6,4.6,7.1,10.6,7.1,17.1S188.4,69.6,183.8,74.2z M183.8,74.2c-4.6,4.6-10.6,7.1-17.1,7.1
		s-12.5-2.5-17.1-7.1c-3-3-4.6-7-4.5-11.1c0.1-3.6,1.5-6.9,4.1-9.2c2.3-2.1,5.1-3.3,8-3.3c0.4,0,0.8,0,1.1,0.1
		c3.4,0.4,6.7,2.4,9.1,5.8c0.4,0.6,0.3,1.5-0.3,1.9c-0.3,0.2-0.6,0.3-0.8,0.3c-0.4,0-0.8-0.2-1.1-0.6c-2-2.8-4.5-4.4-7.2-4.6
		c-2.5-0.3-5,0.7-7,2.5c-2.6,2.4-3.2,5.3-3.2,7.3c-0.1,3.3,1.3,6.7,3.7,9.1c4,4,9.4,6.3,15.2,6.3h0c5.7,0,11.1-2.2,15.2-6.3
		c8.4-8.4,8.4-22,0-30.3c-4.1-4.1-9.4-6.3-15.2-6.3c-2,0-4,0.3-6,0.8c0,0,0,0,0,0l-0.1,0l-0.2,0c0,0,0,0,0,0l-0.1,0c0,0,0,0,0,0l0,0
		c0,0,0,0,0,0l-0.1,0c0,0,0,0,0,0l0,0c0,0,0,0,0,0l0,0c0,0,0,0,0,0c0,0,0,0,0,0l-0.3-0.1c0,0,0,0,0,0c0,0,0,0-0.1,0c0,0,0,0,0,0
		c0,0-0.1,0-0.1-0.1c0,0,0,0,0,0c0,0,0,0,0,0c0,0,0,0,0,0l0,0c0,0,0,0,0,0l-0.2-0.2c0,0,0,0,0,0c0,0,0,0,0,0c0,0,0,0,0,0
		c0,0,0,0,0,0c0,0,0,0,0,0l0,0h0l-0.1-0.3c0,0,0,0,0,0c0,0,0,0,0,0l0-0.1l0-0.3c0,0,0,0,0,0c0,0,0,0,0,0l0,0l-2-0.2l2,0.2l0,0
		c0,0,0,0,0,0l0,0c0,0,0,0,0,0l0,0c0,0,0,0,0,0l0-0.1c0,0,0,0,0,0c2.2-7.5,0.1-15.6-5.4-21.1c-4-4-9.4-6.3-15.2-6.3
		c-5.7,0-11.1,2.2-15.2,6.3c-8.4,8.4-8.4,22,0,30.3c2.4,2.4,5.8,3.8,9.1,3.7c2,0,4.9-0.6,7.3-3.2c1.9-2.1,2.8-4.6,2.5-7
		c-0.3-2.7-1.9-5.2-4.6-7.2c-0.6-0.4-0.8-1.3-0.3-1.9c0.3-0.4,0.7-0.6,1.1-0.6c0.2,0,0.5,0,0.8,0.3c3.4,2.4,5.4,5.6,5.8,9.1
		c0.3,3.3-0.8,6.5-3.2,9.2c-2.4,2.6-5.6,4-9.2,4.1c-4.1,0.1-8.1-1.6-11.1-4.5c-4.6-4.6-7.1-10.6-7.1-17.1c0-6.5,2.5-12.5,7.1-17.1
		c4.6-4.6,10.6-7.1,17.1-7.1c6.5,0,12.5,2.5,17.1,7.1c5,5,7.6,12,7,19.1c0,0.6,0.2,1.2,0.6,1.6c0.4,0.4,1,0.6,1.6,0.6
		c0.7-0.1,1.4-0.1,2-0.1c6.5,0,12.5,2.5,17.1,7.1c4.6,4.6,7.1,10.6,7.1,17.1S188.4,69.6,183.8,74.2z"/>
	<path class="st1" d="M46.6,181.2c0.5,0,1-0.2,1.4-0.6l24.6-24.6c0.8-0.8,0.8-2,0-2.8c-0.8-0.8-2-0.8-2.8,0l-24.6,24.6
		c-0.8,0.8-0.8,2,0,2.8C45.5,181.1,46.1,181.2,46.6,181.2z"/>
	<path class="st1" d="M125.8,153.3c-0.8-0.8-2-0.8-2.8,0c-0.8,0.8-0.8,2,0,2.8l24.6,24.6c0.4,0.4,0.9,0.6,1.4,0.6
		c0.5,0,1-0.2,1.4-0.6c0.8-0.8,0.8-2,0-2.8L125.8,153.3z"/>
</g>
</svg>
